HIERARCHY
ROOT Hips
{
	OFFSET 0.00000 0.00000 0.00000
	CHANNELS 6 Xposition Yposition Zposition Zrotation Yrotation Xrotation 
	JOINT LHipJoint
	{
		OFFSET 0 0 0
		CHANNELS 3 Zrotation Yrotation Xrotation
		JOINT LeftHip
		{
			OFFSET 1.62964 -1.40469 0.78906
			CHANNELS 3 Zrotation Yrotation Xrotation
			JOINT LeftKnee
			{
				OFFSET 2.29640 -6.30932 0.00000
				CHANNELS 3 Zrotation Yrotation Xrotation
				JOINT LeftAnkle
				{
					OFFSET 2.29451 -6.30412 0.00000
					CHANNELS 3 Zrotation Yrotation Xrotation
					JOINT LeftToe
					{
						OFFSET 0.03611 -0.09921 1.56387
						CHANNELS 3 Zrotation Yrotation Xrotation
						End Site
						{
							OFFSET 0.00000 -0.00000 0.80291
						}
					}
				}
			}
		}
	}
	JOINT RHipJoint
	{
		OFFSET 0 0 0
		CHANNELS 3 Zrotation Yrotation Xrotation
		JOINT RightHip
		{
			OFFSET -1.73712 -1.40469 0.78906
			CHANNELS 3 Zrotation Yrotation Xrotation
			JOINT RightKnee
			{
				OFFSET -2.28137 -6.26801 0.00000
				CHANNELS 3 Zrotation Yrotation Xrotation
				JOINT RightAnkle
				{
					OFFSET -2.28681 -6.28298 0.00000
					CHANNELS 3 Zrotation Yrotation Xrotation
					JOINT RightToe
					{
						OFFSET -0.15927 -0.43759 1.61103
						CHANNELS 3 Zrotation Yrotation Xrotation
						End Site
						{
							OFFSET -0.00000 -0.00000 0.84630
						}
					}
				}
			}
		}
	}
	JOINT lowerback
	{
		OFFSET 0 0 0
		CHANNELS 3 Zrotation Yrotation Xrotation
		JOINT Chest
		{
			OFFSET -0.04227 2.04338 -0.00225
			CHANNELS 3 Zrotation Yrotation Xrotation
			JOINT Chest2
			{
				OFFSET -0.02148 2.04482 -0.04273
				CHANNELS 3 Zrotation Yrotation Xrotation
				JOINT lowerneck
				{
					OFFSET 0 0 0
					CHANNELS 3 Zrotation Yrotation Xrotation
					JOINT Neck
					{
						OFFSET 0.09180 1.44629 0.19359
						CHANNELS 3 Zrotation Yrotation Xrotation
						JOINT Head
						{
							OFFSET 0.00887 1.40645 0.14750
							CHANNELS 3 Zrotation Yrotation Xrotation
							End Site
							{
								OFFSET -0.00669 1.50671 0.03707
							}
						}
					}
				}
				JOINT LeftCollar
				{
					OFFSET 0 0 0
					CHANNELS 3 Zrotation Yrotation Xrotation
					JOINT LeftShoulder
					{
						OFFSET 2.17674 1.86763 -0.06520
CHANNELS 3 Zrotation Xrotation Yrotation
						JOINT LeftElbow
						{
OFFSET 0 -4.657760 0.000000
CHANNELS 3 Zrotation Xrotation Yrotation
							JOINT LeftWrist
							{
OFFSET 0 -3.555390 0.000000
CHANNELS 3 Zrotation Xrotation Yrotation
								JOINT lhand
								{
									OFFSET 0 0 0
CHANNELS 3 Zrotation Xrotation Yrotation
									JOINT LFingers
									{
OFFSET 0 -0.707260 0.000000
CHANNELS 3 Zrotation Xrotation Yrotation
										End Site
										{
OFFSET 0 -0.570220 0.000000
										}
									}
								}
								JOINT LThumb
								{
OFFSET 0 0.000000 0.000000
CHANNELS 3 Zrotation Xrotation Yrotation
									End Site
									{
OFFSET 0 -0.578920 0.578920
									}
								}
							}
						}
					}
				}
				JOINT RightCollar
				{
					OFFSET 0 0 0
					CHANNELS 3 Zrotation Yrotation Xrotation
					JOINT RightShoulder
					{
						OFFSET -2.80694 1.55459 -0.32496
CHANNELS 3 Zrotation Xrotation Yrotation
						JOINT RightElbow
						{
OFFSET 0 -4.719250 -0.000000
CHANNELS 3 Zrotation Xrotation Yrotation
							JOINT RightWrist
							{
OFFSET 0 -3.569900 0.000000
CHANNELS 3 Zrotation Xrotation Yrotation
								JOINT rhand
								{
									OFFSET 0 0 0
CHANNELS 3 Zrotation Xrotation Yrotation
									JOINT RFingers
									{
OFFSET 0 -0.507760 0.000000
CHANNELS 3 Zrotation Xrotation Yrotation
										End Site
										{
OFFSET 0 -0.409370 0.000000
										}
									}
								}
								JOINT RThumb
								{
OFFSET 0 0.000000 0.000000
CHANNELS 3 Zrotation Xrotation Yrotation
									End Site
									{
OFFSET 0 -0.415620 0.415620
									}
								}
							}
						}
					}
				}
			}
		}
	}
}
MOTION
Frames: 7
Frame Time: 0.008333333333333333
9.112500 16.327000 9.248200 -179.492000 -3.248900 -153.004000 0.000000 0.000000 0.000000 -16.612600 -17.155700 -19.736400 0.139600 2.408400 6.635800 0.211400 1.140700 -9.178900 4.618600 -12.941000 -39.148000 0.000000 0.000000 0.000000 15.996700 17.706200 -21.158800 -0.251200 -3.225200 8.906200 -1.246400 -0.724700 -21.378400 -4.715200 13.055700 -39.577400 -6.527400 -2.061600 -29.383100 0.567700 -1.683500 -3.354900 3.433200 -1.498200 11.859300 -2.609500 -3.619800 0.103000 6.986100 -4.978500 -11.705300 2.959800 -2.918800 -3.584400 0.000000 -0.000000 0.000000 2.949200 -1.711100 -13.561600 6.927700 -11.800200 0.716800 21.756400 12.436200 10.681500 0.000000 0.000000 0.000000 -7.125000 0.000000 0.000000 -3.745800 18.514000 -2.367600 0.000000 -0.000000 0.000000 0.962900 2.207700 9.591400 -14.900800 -24.007700 -3.185500 -12.835200 10.266300 55.550800 0.000000 0.000000 0.000000 7.125000 0.000000 -0.000000 76.873500 76.566800 -63.087200
9.111749 16.325664 9.252123 -179.527058 -3.301321 -153.023199 0.000000 0.000000 0.000000 -16.627458 -17.288171 -19.685649 0.140351 2.414327 6.652077 0.221751 0.989031 -9.311287 4.204994 -12.424723 -37.256932 0.000000 0.000000 0.000000 15.969989 17.775983 -20.988934 -0.241768 -3.163931 8.735499 -1.240307 -0.790977 -21.351689 -4.643998 12.971226 -39.261123 -6.354529 -2.067610 -29.500629 0.419369 -1.703867 -3.246553 3.169177 -1.498283 12.027497 -1.610669 -3.702605 0.524202 6.022411 -5.143358 -12.206719 2.492104 -3.018299 -3.877388 0.000000 0.000000 0.000000 3.154876 -1.789397 -13.643904 7.013510 -11.941435 0.734496 22.132777 11.964581 10.922819 0.000000 0.000000 0.000000 -7.125000 0.000000 0.000000 -3.488121 18.224017 -2.226114 0.000000 0.000000 0.000000 1.203635 2.009286 9.604255 -14.817244 -23.890839 -3.151527 -12.499056 9.863378 54.759398 0.000000 0.000000 0.000000 7.125000 0.000000 0.000000 73.643450 76.325147 -59.729354
9.111198 16.325601 9.255712 -179.528644 -3.292822 -153.024992 0.000000 0.000000 0.000000 -16.616342 -17.383420 -19.708135 0.143513 2.441341 6.727065 0.221591 1.095501 -9.361533 4.258663 -12.495887 -37.511180 0.000000 0.000000 0.000000 15.956466 17.799574 -20.946932 -0.237423 -3.135666 8.656579 -1.232472 -0.798410 -21.287488 -4.594352 12.911856 -39.039506 -6.158427 -2.027696 -29.627464 0.271574 -1.676503 -3.156415 2.910777 -1.475873 12.174539 -1.520681 -3.532625 0.514011 5.643686 -4.902530 -11.706374 2.320840 -2.858855 -3.717829 0.000000 0.000000 0.000000 3.391481 -1.900296 -13.886875 7.088675 -12.064997 0.750117 22.030565 11.513246 10.913161 0.000000 0.000000 0.000000 -7.125000 0.000000 0.000000 -3.559676 18.243252 -2.270668 0.000000 0.000000 0.000000 1.434394 1.821717 9.550834 -14.726860 -23.764203 -3.115076 -12.054931 9.450014 54.194269 0.000000 0.000000 0.000000 7.125000 0.000000 0.000000 71.467983 76.050357 -57.369388
9.110546 16.325448 9.259318 -179.521967 -3.260611 -153.023496 0.000000 0.000000 0.000000 -16.614240 -17.390779 -19.753341 0.145908 2.461461 6.782919 0.217576 1.220477 -9.344208 4.482751 -12.774044 -38.532434 0.000000 0.000000 0.000000 15.944585 17.807929 -20.962211 -0.236200 -3.127952 8.635006 -1.225116 -0.780525 -21.217663 -4.560717 12.871339 -38.888651 -5.890847 -1.960310 -29.777216 0.075410 -1.630447 -3.060386 2.568156 -1.441053 12.334661 -1.284051 -3.682301 0.813361 5.707295 -5.102372 -12.054785 2.331812 -2.987598 -3.896720 0.000000 0.000000 0.000000 3.720523 -2.018640 -14.353688 7.176640 -12.209506 0.768604 21.799963 10.936640 10.741968 0.000000 0.000000 0.000000 -7.125000 0.000000 0.000000 -3.717052 18.445713 -2.354598 0.000000 0.000000 0.000000 1.739477 1.640052 9.542359 -14.683745 -23.703773 -3.097728 -11.243678 8.750624 53.725741 0.000000 0.000000 0.000000 7.125000 0.000000 0.000000 69.908720 75.635544 -55.454326
9.109964 16.325166 9.262923 -179.510205 -3.239456 -153.029778 0.000000 0.000000 0.000000 -16.623067 -17.296483 -19.792879 0.145682 2.459516 6.777515 0.213717 1.218776 -9.265919 4.664107 -12.995155 -39.350487 0.000000 0.000000 0.000000 15.948389 17.810316 -20.974183 -0.235556 -3.123828 8.623567 -1.219202 -0.761904 -21.159876 -4.543307 12.850302 -38.810485 -5.572706 -1.889430 -29.918528 -0.148927 -1.595012 -2.967410 2.164155 -1.407703 12.487735 -1.042006 -3.855270 1.178685 5.769903 -5.330336 -12.401282 2.343250 -3.128947 -4.085306 0.000000 0.000000 0.000000 4.101775 -2.091513 -14.963380 7.284142 -12.385858 0.791508 21.691263 10.312509 10.486071 0.000000 0.000000 0.000000 -7.125000 0.000000 0.000000 -3.786239 18.728248 -2.375398 0.000000 0.000000 0.000000 2.098326 1.488869 9.594751 -14.696924 -23.722254 -3.103030 -10.730293 8.358766 53.526877 0.000000 0.000000 0.000000 7.125000 0.000000 0.000000 69.321558 75.392566 -54.640106
9.109648 16.325308 9.266325 -179.492917 -3.244826 -153.039354 0.000000 0.000000 0.000000 -16.632406 -17.137948 -19.830646 0.143187 2.438926 6.720369 0.211140 1.078262 -9.142514 4.743016 -13.088074 -39.699639 0.000000 0.000000 0.000000 15.972050 17.805474 -20.965717 -0.233779 -3.111880 8.590403 -1.214562 -0.747972 -21.114796 -4.536658 12.842277 -38.780827 -5.309878 -1.844573 -30.010799 -0.319466 -1.589188 -2.903933 1.838065 -1.390353 12.591310 -1.071730 -3.775843 1.264791 5.653515 -5.199479 -12.006315 2.291859 -3.035486 -3.967793 0.000000 0.000000 0.000000 4.393723 -2.102087 -15.518622 7.394645 -12.566830 0.815343 21.740901 9.826386 10.265345 0.000000 0.000000 0.000000 -7.125000 0.000000 0.000000 -3.744949 18.959937 -2.329985 0.000000 0.000000 0.000000 2.385788 1.392572 9.655252 -14.736459 -23.777693 -3.118917 -10.887324 8.620829 53.708508 0.000000 0.000000 0.000000 7.125000 0.000000 0.000000 69.945810 75.498254 -55.335796
9.109392 16.326305 9.269315 -179.483050 -3.257844 -153.021858 0.000000 0.000000 0.000000 -16.639126 -17.015017 -19.909594 0.141702 2.426210 6.685028 0.207988 0.950897 -9.015213 4.870803 -13.236755 -40.261488 0.000000 0.000000 0.000000 15.977827 17.792428 -20.991645 -0.231280 -3.095463 8.544817 -1.210075 -0.716706 -21.064510 -4.519663 12.821534 -38.704183 -5.299241 -1.859254 -30.038812 -0.305529 -1.611548 -2.897750 1.837804 -1.400623 12.612653 -0.815246 -3.997646 1.437850 5.945038 -5.515999 -12.788802 2.395414 -3.260189 -4.270027 0.000000 0.000000 0.000000 4.364549 -2.126947 -15.742539 7.464139 -12.680507 0.830464 21.675496 9.654029 10.288282 0.000000 0.000000 0.000000 -7.125000 0.000000 0.000000 -3.791937 18.940766 -2.361014 0.000000 0.000000 0.000000 2.382531 1.346808 9.630707 -14.741016 -23.784121 -3.120706 -10.694496 8.624437 53.981752 0.000000 0.000000 0.000000 7.125000 0.000000 0.000000 71.052758 75.491973 -56.359142
